<svg width="512" height="512" viewBox="0 0 512 512" fill="none" xmlns="http://www.w3.org/2000/svg">
<g clip-path="url(#clip0_7_188)">
<path d="M512 0H0V512H512V0Z" fill="white"/>
<path d="M0 0C168.847 0 337.694 0 511.657 0C511.657 77.8155 511.657 155.631 511.657 235.805C509.99 234.554 508.401 233.362 506.825 232.03C499.722 226.365 490.991 222.804 482.42 220.033C481.769 219.817 481.119 219.601 480.469 219.384C480.18 219.287 479.89 219.191 479.592 219.091C479.382 219.021 479.173 218.951 478.958 218.879C478.958 218.625 478.958 218.371 478.958 218.11C487.459 215.263 495.527 216.466 503.639 219.967C504.654 220.467 504.654 220.467 505.502 220.418C499.643 209.502 490.945 201.393 478.958 197.722C463.045 193.052 445.027 195.719 429.774 201.532C429.478 201.643 429.183 201.753 428.878 201.868C428.621 201.968 428.363 202.068 428.098 202.171C427.407 202.338 427.407 202.338 426.253 201.953C446.204 189.462 467.668 182.309 491.268 185.797C480.131 171.805 465.856 159.177 447.313 157.036C437.075 156.172 428.556 157.826 418.976 161.152C406.14 165.598 392.368 169.43 378.67 169.28C378.359 169.279 378.047 169.277 377.727 169.275C376.975 169.271 376.224 169.264 375.472 169.256C376.557 168.172 377.862 167.939 379.295 167.501C392.384 163.29 403.731 154.898 410.211 142.619C416.175 130.704 414.472 116.691 410.428 104.436C408.082 97.6672 404.925 91.5038 400.093 86.1668C399.925 85.98 399.757 85.7932 399.584 85.6007C393.444 78.8569 384.469 73.6029 375.23 72.9962C369.427 72.8868 364.716 74.2586 360.273 78.1683C358.581 79.8073 357.148 81.5091 355.852 83.4741C356.177 83.3164 356.503 83.1587 356.838 82.9962C357.274 82.789 357.711 82.5817 358.16 82.3681C358.589 82.1629 359.017 81.9576 359.459 81.7461C364.56 79.6244 371.172 79.5098 376.359 81.453C380.396 83.3311 382.474 85.7349 384.056 89.8933C386.192 95.9785 385.583 103.169 382.878 108.935C379.458 115.372 373.935 120.644 366.939 122.875C353.934 126.699 339.122 122.978 326.103 120.765C310.833 117.864 310.833 117.864 295.381 116.796C295.12 116.798 294.858 116.8 294.588 116.802C270.599 117.006 249.207 131.049 231.592 146.176C231.338 146.049 231.085 145.922 230.823 145.791C233.606 139.885 236.851 134.919 241.405 130.227C241.95 129.665 242.488 129.097 243.025 128.529C247.377 124.024 252.888 119.373 258.522 116.556C229.537 116.05 203.608 125.012 181.965 144.637C181.606 144.961 181.606 144.961 181.239 145.292C177.716 148.472 177.716 148.472 174.513 151.968C173.771 152.853 172.987 153.694 172.204 154.542C170.555 156.361 169.108 158.279 167.673 160.266C166.962 161.178 166.962 161.178 166.192 161.563C166.901 158.952 167.787 156.549 169.006 154.134C169.169 153.808 169.333 153.482 169.502 153.146C172.273 147.789 175.733 142.677 179.657 138.098C179.966 137.723 180.275 137.349 180.593 136.963C183.93 132.934 187.478 129.081 191.198 125.403C182.732 129.419 174.536 134.107 166.962 139.636C166.754 139.787 166.546 139.938 166.331 140.094C162.454 142.916 158.749 145.932 155.209 149.166C154.599 149.72 153.983 150.268 153.36 150.807C148.637 154.922 144.544 159.629 140.802 164.64C140.644 164.849 140.485 165.059 140.322 165.274C135.97 171.05 132.318 177.326 129.261 183.874C129.136 184.138 129.011 184.402 128.883 184.675C124.989 192.978 122.341 201.564 120.028 210.416C119.943 210.732 119.858 211.047 119.771 211.372C119.433 212.655 119.259 213.692 119.259 215.032C119.52 214.715 119.782 214.398 120.052 214.071C122.279 211.405 124.591 208.857 127.049 206.401C127.298 206.152 127.548 205.902 127.805 205.645C133.289 200.222 139.424 195.498 145.803 191.183C146.065 191.005 146.327 190.828 146.598 190.645C151.071 187.64 155.704 184.934 160.422 182.335C160.76 182.148 161.098 181.961 161.446 181.769C171.815 176.078 182.677 171.732 193.873 167.982C194.641 167.724 195.407 167.463 196.173 167.201C207.722 163.254 219.501 160.208 231.592 158.485C231.998 158.423 232.403 158.361 232.821 158.296C247.742 156.064 263.982 156.504 278.911 158.485C279.444 158.552 279.976 158.619 280.509 158.685C316.736 163.229 352.888 173.662 426.402 223.35C427.057 223.946 427.714 224.54 428.373 225.131C431.561 228.015 434.613 231.026 437.648 234.07C438.495 234.919 439.345 235.767 440.195 236.614C440.744 237.163 441.292 237.712 441.841 238.261C442.215 238.634 442.215 238.634 442.597 239.015C444.07 240.495 445.472 242.019 446.836 243.6C447.573 244.454 448.334 245.286 449.095 246.119C450.594 247.78 452.018 249.49 453.424 251.231C454.22 252.203 455.031 253.159 455.851 254.11C458.227 256.875 460.422 259.752 462.582 262.687C463.174 263.487 463.774 264.28 464.376 265.071C471.12 273.995 477.204 283.446 482.805 293.121C483.053 293.549 483.302 293.976 483.558 294.417C491.428 307.962 498.826 321.823 505.166 336.156C505.328 336.522 505.328 336.522 505.494 336.895C506.04 338.127 506.568 339.365 507.077 340.613C507.611 341.92 508.207 343.185 508.822 344.455C512.143 351.67 512.135 358.279 511.922 366.065C511.881 367.692 511.865 369.32 511.845 370.948C511.805 374.113 511.739 377.277 511.657 380.442C510.776 379.12 510.325 377.774 509.824 376.282C509.609 375.655 509.394 375.027 509.179 374.4C509.01 373.902 509.01 373.902 508.837 373.395C501.251 351.228 491.65 329.549 480.255 309.074C479.749 308.162 479.247 307.248 478.747 306.332C470.707 291.651 461.361 277.702 450.874 264.655C450.444 264.12 450.444 264.12 450.006 263.573C446.831 259.659 443.547 255.831 440.158 252.101C439.593 251.478 439.031 250.851 438.472 250.222C436.777 248.317 435.031 246.491 433.214 244.702C432.504 243.98 431.853 243.242 431.206 242.464C429.24 240.177 426.957 238.196 424.741 236.157C423.938 235.414 423.143 234.664 422.35 233.911C419.833 231.523 417.312 229.186 414.596 227.022C413.628 226.244 412.682 225.447 411.739 224.639C409.084 222.365 406.351 220.208 403.555 218.11C403.297 217.914 403.038 217.718 402.772 217.517C375.318 196.771 344.534 183.188 256.406 168.391C255.991 168.39 255.576 168.39 255.148 168.39C227.954 168.417 199.447 175.211 174.826 186.891C173.848 187.354 172.863 187.802 171.877 188.249C160.655 193.392 150.099 200.071 140.417 207.724C140.029 208.03 139.642 208.336 139.242 208.652C137.177 210.317 135.188 212.054 133.228 213.842C132.471 214.528 131.7 215.19 130.92 215.85C126.927 219.339 123.293 223.17 120.028 227.342C119.42 228.08 118.811 228.817 118.201 229.554C116.947 231.084 115.764 232.637 114.642 234.266C113.315 233.064 112.305 231.79 111.276 230.323C106.248 223.352 99.0978 219.526 90.7903 217.725C79.1548 215.958 66.9207 218.963 56.5516 224.264C57.5936 225.488 58.9336 226.138 60.3265 226.885C70.1631 232.303 79.2355 238.942 88.0974 245.806C88.3583 246.007 88.6192 246.208 88.888 246.415C92.0937 248.883 95.2022 251.449 98.2485 254.112C98.6533 254.465 99.059 254.818 99.4657 255.169C100.006 255.636 100.544 256.106 101.081 256.577C101.381 256.839 101.68 257.101 101.989 257.37C102.739 258.139 103.105 258.657 103.486 259.654C103.438 260.603 103.438 260.603 103.238 261.662C103.167 262.053 103.097 262.443 103.025 262.846C102.947 263.253 102.869 263.659 102.788 264.078C101.828 269.226 101.472 274.228 101.466 279.465C101.465 279.739 101.465 280.012 101.464 280.294C101.463 286.344 101.643 292.65 103.072 298.548C103.93 302.298 102.674 304.884 101.247 308.311C98.3644 315.341 96.7887 323.384 99.7828 330.545C102.331 336.071 106.224 340.247 110.574 344.438C110.846 344.701 111.119 344.965 111.399 345.237C111.767 345.587 111.767 345.587 112.142 345.945C113.33 347.276 113.199 348.896 113.266 350.585C113.279 350.877 113.292 351.168 113.305 351.469C113.348 352.449 113.389 353.43 113.429 354.41C113.46 355.112 113.49 355.815 113.521 356.517C113.603 358.427 113.684 360.338 113.764 362.249C113.848 364.253 113.934 366.256 114.019 368.259C114.163 371.63 114.306 375 114.447 378.37C114.61 382.253 114.776 386.136 114.942 390.019C115.103 393.763 115.262 397.506 115.42 401.25C115.487 402.838 115.555 404.426 115.623 406.014C115.703 407.892 115.782 409.771 115.86 411.65C115.889 412.334 115.918 413.019 115.948 413.703C116.027 415.53 116.098 417.357 116.153 419.185C116.172 419.784 116.193 420.383 116.217 420.982C116.25 421.878 116.273 422.774 116.293 423.67C116.304 423.937 116.316 424.204 116.328 424.479C116.353 426.333 115.928 427.237 114.666 428.574C114.244 428.965 114.244 428.965 113.814 429.363C112.993 430.061 112.993 430.061 112.719 431.339C112.719 431.807 112.719 432.275 112.719 432.757C112.698 433.227 112.698 433.227 112.678 433.707C112.451 441.576 113.705 450.261 118.938 456.437C123.125 460.825 127.832 462.478 133.879 462.657C136.011 462.851 137.064 463.917 138.638 465.31C144.017 469.914 150.896 473.222 158.114 472.763C158.418 472.764 158.723 472.764 159.036 472.765C160.739 472.636 161.658 472.311 162.853 471.059C163.796 469.742 164.624 468.4 165.423 466.993C165.574 466.735 165.724 466.477 165.879 466.211C168.469 461.73 170.223 457.286 171.386 452.231C172.372 448.111 174.69 444.798 178.263 442.499C180.043 441.601 181.941 441.211 183.889 440.835C182.936 444.105 181.859 447.327 180.762 450.55C179.703 453.694 178.775 456.517 178.84 459.877C178.847 460.349 178.854 460.821 178.861 461.307C178.874 461.837 178.874 461.837 178.888 462.377C179.594 462.811 179.594 462.811 180.427 463.147C185.099 461.457 187.531 456.12 189.865 452.075C190.181 451.534 190.497 450.993 190.814 450.452C190.968 450.182 191.123 449.913 191.282 449.635C192.314 447.892 193.409 446.65 194.973 445.331C200.137 440.796 203.37 434.872 204.015 427.998C204.147 424.244 203.597 419.925 201.701 416.613C200.594 414.034 201.949 410.509 202.532 407.856C202.629 407.413 202.725 406.97 202.825 406.513C203.715 402.438 204.629 398.368 205.551 394.3C206.169 391.573 206.779 388.844 207.37 386.11C207.887 383.715 208.419 381.324 208.968 378.937C209.257 377.677 209.537 376.417 209.805 375.152C211.854 365.49 211.854 365.49 216.443 362.433C216.659 362.297 216.876 362.161 217.1 362.02C218.172 361.308 219.08 360.444 220.027 359.573C220.368 359.26 220.709 358.947 221.06 358.625C222.359 357.377 223.516 356.051 224.668 354.669C225.154 354.111 225.154 354.111 225.65 353.542C234.162 343.755 240.045 332.151 241.979 319.279C242.05 318.82 242.12 318.36 242.193 317.887C244.507 298.54 237.276 278.293 225.437 263.116C225.564 262.863 225.691 262.609 225.822 262.347C231.186 267.447 235.611 272.825 239.286 279.273C239.424 279.511 239.561 279.749 239.702 279.994C245.09 289.426 248.923 300.611 248.519 311.585C248.781 311.68 249.043 311.776 249.313 311.874C253.67 313.728 257.581 316.673 261.215 319.663C261.438 319.848 261.662 320.032 261.893 320.221C278.971 334.378 288.241 353.88 290.452 375.826C290.495 376.226 290.538 376.626 290.583 377.038C291.655 388.913 290.37 400.709 288.144 412.37C288.035 412.945 288.035 412.945 287.923 413.532C287.095 417.722 285.827 421.131 283.61 424.778C278.345 433.47 277.721 444.283 279.718 454.072C280.028 455.433 280.028 455.433 280.52 456.606C281.429 459.005 281.219 460.419 280.196 462.701C279.718 463.698 279.23 464.69 278.741 465.681C271.671 480.17 272.159 496.649 275.449 512C184.551 512 93.6526 512 0 512C0 343.04 0 174.08 0 0Z" fill="#110375"/>
</g>
<defs>
<clipPath id="clip0_7_188">
<rect width="512" height="512" fill="white"/>
</clipPath>
</defs>
</svg>
