<svg width="192" height="192" viewBox="0 0 192 192" fill="none" xmlns="http://www.w3.org/2000/svg">
<g clip-path="url(#clip0_7_189)">
<path d="M192 0H0V192H192V0Z" fill="white"/>
<path d="M0 -0.0078125C63.3176 -0.0078125 126.635 -0.0078125 191.872 -0.0078125C191.872 29.1754 191.872 58.3586 191.872 88.4262C191.246 87.9573 190.65 87.5103 190.059 87.0106C187.396 84.8862 184.122 83.5507 180.907 82.5114C180.664 82.4305 180.42 82.3493 180.176 82.2679C180.067 82.2317 179.959 82.1954 179.847 82.158C179.768 82.1318 179.69 82.1056 179.609 82.0786C179.609 81.9834 179.609 81.8882 179.609 81.7901C182.797 80.7226 185.823 81.1736 188.865 82.4866C189.245 82.674 189.245 82.674 189.563 82.6556C187.366 78.5619 184.105 75.5208 179.609 74.1441C173.642 72.3926 166.885 73.3927 161.165 75.5728C161.054 75.6144 160.944 75.656 160.829 75.6988C160.733 75.7364 160.636 75.7739 160.537 75.8126C160.278 75.8752 160.278 75.8752 159.845 75.731C167.326 71.0462 175.376 68.3638 184.226 69.6719C180.049 64.4243 174.696 59.6885 167.742 58.8854C163.903 58.5616 160.708 59.1818 157.116 60.429C152.303 62.0965 147.138 63.5337 142.001 63.4775C141.884 63.4769 141.768 63.4762 141.648 63.4755C141.366 63.4739 141.084 63.4713 140.802 63.4685C141.209 63.0618 141.698 62.9747 142.236 62.8103C147.144 61.2311 151.399 58.0838 153.829 53.4787C156.066 49.0104 155.427 43.7548 153.91 39.1588C153.031 36.6204 151.847 34.309 150.035 32.3074C149.972 32.2373 149.909 32.1673 149.844 32.0951C147.542 29.566 144.176 27.5955 140.711 27.368C138.535 27.327 136.768 27.8415 135.102 29.3077C134.468 29.9224 133.931 30.5606 133.445 31.2975C133.566 31.2384 133.688 31.1793 133.814 31.1183C133.978 31.0406 134.141 30.9629 134.31 30.8828C134.471 30.8058 134.631 30.7288 134.797 30.6495C136.71 29.8538 139.189 29.8108 141.134 30.5396C142.648 31.2439 143.428 32.1454 144.021 33.705C144.822 35.9871 144.594 38.6838 143.579 40.846C142.297 43.2604 140.226 45.2375 137.602 46.0742C132.725 47.5083 127.171 46.1128 122.288 45.2829C116.562 44.1947 116.562 44.1947 110.768 43.7944C110.67 43.7952 110.572 43.7959 110.471 43.7966C101.475 43.8732 93.4527 49.1398 86.8471 54.8126C86.7519 54.765 86.6567 54.7174 86.5586 54.6684C87.6022 52.4532 88.8192 50.5911 90.527 48.8313C90.7312 48.6207 90.9329 48.4077 91.1345 48.1945C92.7664 46.505 94.8331 44.7606 96.9456 43.7043C86.0765 43.5143 76.353 46.8755 68.237 54.2356C68.1022 54.3571 68.1022 54.3571 67.9646 54.481C66.6436 55.6739 66.6436 55.6739 65.4425 56.985C65.1641 57.3169 64.8703 57.6322 64.5763 57.9504C63.9581 58.6322 63.4155 59.3518 62.8773 60.0969C62.6107 60.4389 62.6107 60.4389 62.3222 60.5832C62.5878 59.604 62.9203 58.7028 63.3771 57.7971C63.4386 57.6749 63.5 57.5526 63.5633 57.4266C64.6026 55.4178 65.8997 53.5005 67.3714 51.7831C67.4873 51.6427 67.6032 51.5023 67.7225 51.3576C68.9737 49.8467 70.3044 48.4017 71.6994 47.0224C68.5246 48.5283 65.451 50.2865 62.6107 52.3601C62.5327 52.4167 62.4546 52.4733 62.3742 52.5317C60.9201 53.5901 59.5309 54.7211 58.2033 55.9341C57.9747 56.1419 57.7438 56.3472 57.5102 56.5494C55.7387 58.0926 54.2038 59.8581 52.8007 61.7373C52.7414 61.8158 52.682 61.8943 52.6208 61.9752C50.9887 64.1412 49.6192 66.4949 48.4728 68.9505C48.426 69.0497 48.3793 69.1488 48.3311 69.2509C46.8709 72.3648 45.8779 75.5848 45.0105 78.9048C44.9786 79.0231 44.9468 79.1414 44.914 79.2633C44.7872 79.7444 44.7219 80.1334 44.7219 80.6359C44.8201 80.5169 44.9183 80.3979 45.0195 80.2753C45.8547 79.2755 46.7215 78.3199 47.6433 77.399C47.7368 77.3054 47.8304 77.2117 47.9268 77.1153C49.9833 75.0817 52.2839 73.3099 54.6762 71.6916C54.7745 71.625 54.8728 71.5585 54.9741 71.49C56.6515 70.3632 58.3888 69.3483 60.1582 68.3735C60.2849 68.3034 60.4116 68.2333 60.5422 68.1611C64.4306 66.0269 68.5038 64.3968 72.7024 62.9907C72.9903 62.8939 73.2777 62.796 73.565 62.6976C77.8957 61.2174 82.3129 60.0752 86.8471 59.4291C86.9991 59.4057 87.1511 59.3823 87.3077 59.3582C92.9031 58.5211 98.9934 58.6862 104.592 59.4291C104.791 59.4542 104.991 59.4792 105.191 59.5041C118.776 61.208 132.333 65.1206 159.901 83.7553C160.146 83.9788 160.393 84.2015 160.64 84.4233C161.836 85.5047 162.98 86.634 164.118 87.7755C164.436 88.0941 164.754 88.4119 165.073 88.7297C165.279 88.9356 165.485 89.1416 165.69 89.3476C165.831 89.4874 165.831 89.4874 165.974 89.63C166.526 90.1852 167.052 90.7566 167.564 91.3498C167.84 91.6702 168.125 91.982 168.411 92.2943C168.973 92.9173 169.507 93.5588 170.034 94.2114C170.332 94.5761 170.637 94.9345 170.944 95.2913C171.835 96.3281 172.658 97.4073 173.468 98.508C173.69 98.8078 173.915 99.1052 174.141 99.4021C176.67 102.749 178.951 106.293 181.052 109.922C181.145 110.082 181.238 110.242 181.334 110.408C184.285 115.488 187.06 120.686 189.437 126.061C189.498 126.198 189.498 126.198 189.56 126.338C189.765 126.8 189.963 127.264 190.154 127.733C190.354 128.223 190.578 128.697 190.808 129.174C192.054 131.879 192.051 134.358 191.971 137.278C191.956 137.888 191.949 138.499 191.942 139.109C191.927 140.296 191.902 141.483 191.872 142.67C191.541 142.174 191.372 141.669 191.184 141.11C191.104 140.874 191.023 140.639 190.942 140.404C190.879 140.217 190.879 140.217 190.814 140.027C187.969 131.713 184.369 123.583 180.096 115.905C179.906 115.563 179.718 115.22 179.53 114.876C176.515 109.37 173.01 104.139 169.078 99.246C168.917 99.0452 168.917 99.0452 168.752 98.8403C167.561 97.3723 166.33 95.9368 165.059 94.5377C164.847 94.3041 164.637 94.0692 164.427 93.8333C163.791 93.1186 163.137 92.4339 162.455 91.7629C162.189 91.4922 161.945 91.2154 161.702 90.9238C160.965 90.066 160.109 89.323 159.278 88.5584C158.977 88.2797 158.679 87.9985 158.381 87.7162C157.437 86.8205 156.492 85.9439 155.474 85.1324C155.11 84.8408 154.756 84.5418 154.402 84.2389C153.406 83.3861 152.382 82.5771 151.333 81.7901C151.236 81.7167 151.139 81.6433 151.039 81.5677C140.744 73.7876 129.2 68.6932 96.1522 63.1439C95.9966 63.1438 95.841 63.1437 95.6807 63.1436C85.4826 63.1537 74.7926 65.7015 65.5598 70.0821C65.1929 70.2558 64.8237 70.4239 64.454 70.5915C60.2458 72.5203 56.2872 75.0251 52.6565 77.8949C52.5111 78.0099 52.3656 78.1248 52.2158 78.2432C51.4413 78.8675 50.6953 79.5191 49.9605 80.1896C49.6765 80.4468 49.3876 80.6953 49.095 80.9425C47.5978 82.251 46.235 83.688 45.0105 85.2524C44.7825 85.5293 44.5541 85.8058 44.3252 86.0819C43.855 86.6559 43.4117 87.2382 42.9908 87.8492C42.4933 87.3983 42.1143 86.9207 41.7285 86.3705C39.843 83.7561 37.1617 82.3212 34.0464 81.6458C29.683 80.9832 25.0953 82.1101 21.2069 84.0983C21.5976 84.5572 22.1001 84.8009 22.6224 85.0811C26.3112 87.113 29.7133 89.6027 33.0365 92.1771C33.1344 92.2524 33.2322 92.3278 33.333 92.4054C34.5351 93.3312 35.7008 94.2933 36.8432 95.2919C36.995 95.4245 37.1471 95.5566 37.2997 95.6883C37.5024 95.8634 37.704 96.0399 37.9055 96.2165C38.0178 96.3147 38.1301 96.4129 38.2458 96.514C38.527 96.8021 38.6643 96.9964 38.8071 97.3706C38.7892 97.7265 38.7892 97.7265 38.7141 98.1235C38.6878 98.27 38.6615 98.4166 38.6344 98.5676C38.6051 98.72 38.5758 98.8725 38.5456 99.0296C38.1854 100.96 38.0522 102.836 38.0497 104.8C38.0495 104.903 38.0492 105.005 38.049 105.111C38.0487 107.38 38.1162 109.745 38.6521 111.957C38.9739 113.363 38.5027 114.333 37.9674 115.618C36.8867 118.255 36.2958 121.271 37.4186 123.957C38.3742 126.029 39.8339 127.595 41.4652 129.167C41.5673 129.266 41.6695 129.365 41.7747 129.467C41.9125 129.598 41.9125 129.598 42.0531 129.732C42.4989 130.231 42.4497 130.839 42.4749 131.472C42.4797 131.582 42.4845 131.691 42.4895 131.804C42.5056 132.172 42.5208 132.539 42.536 132.907C42.5474 133.17 42.5588 133.434 42.5702 133.697C42.6012 134.414 42.6314 135.13 42.6614 135.847C42.693 136.598 42.7252 137.35 42.7573 138.101C42.8112 139.365 42.8646 140.629 42.9177 141.893C42.9789 143.349 43.0409 144.805 43.1033 146.261C43.1635 147.665 43.2231 149.069 43.2824 150.473C43.3076 151.069 43.333 151.664 43.3585 152.26C43.3887 152.964 43.4184 153.669 43.4477 154.374C43.4584 154.63 43.4693 154.887 43.4805 155.144C43.5101 155.829 43.5367 156.514 43.5575 157.2C43.5645 157.424 43.5725 157.649 43.5813 157.873C43.5938 158.209 43.6023 158.545 43.6098 158.881C43.6142 158.982 43.6185 159.082 43.6231 159.185C43.6326 159.88 43.473 160.219 42.9998 160.721C42.8416 160.867 42.8416 160.867 42.6803 161.017C42.3726 161.278 42.3726 161.278 42.2694 161.758C42.2694 161.933 42.2694 162.109 42.2694 162.29C42.2619 162.466 42.2619 162.466 42.2542 162.646C42.1691 165.597 42.6393 168.854 44.6019 171.17C46.1718 172.816 47.937 173.436 50.2045 173.503C51.004 173.576 51.399 173.976 51.9893 174.498C54.0063 176.224 56.5861 177.465 59.2926 177.293C59.4068 177.293 59.521 177.293 59.6386 177.294C60.2771 177.245 60.6218 177.123 61.07 176.654C61.4236 176.16 61.7339 175.657 62.0337 175.129C62.0901 175.032 62.1465 174.935 62.2046 174.836C63.1757 173.155 63.8336 171.488 64.2698 169.593C64.6395 168.048 65.5086 166.805 66.8485 165.943C67.516 165.606 68.228 165.46 68.9583 165.319C68.6009 166.545 68.1972 167.753 67.7859 168.962C67.3886 170.142 67.0406 171.2 67.0649 172.46C67.0675 172.637 67.0701 172.814 67.0728 172.997C67.0778 173.195 67.0778 173.195 67.0829 173.398C67.3476 173.561 67.3476 173.561 67.66 173.686C69.412 173.053 70.3239 171.051 71.1995 169.534C71.318 169.331 71.4365 169.129 71.5551 168.926C71.613 168.825 71.671 168.723 71.7307 168.619C72.1177 167.966 72.5283 167.5 73.115 167.005C75.0515 165.304 76.2638 163.083 76.5057 160.505C76.5553 159.097 76.3489 157.477 75.6379 156.235C75.2228 155.268 75.7309 153.946 75.9496 152.951C75.9858 152.785 76.022 152.618 76.0593 152.447C76.3932 150.919 76.7359 149.393 77.0817 147.867C77.3135 146.844 77.5423 145.821 77.7636 144.795C77.9576 143.897 78.157 143.001 78.363 142.105C78.4715 141.633 78.5765 141.16 78.6767 140.686C79.4454 137.062 79.4454 137.062 81.166 135.916C81.2473 135.865 81.3286 135.814 81.4124 135.761C81.8146 135.494 82.1552 135.17 82.5102 134.843C82.6379 134.726 82.7657 134.609 82.8973 134.488C83.3845 134.02 83.8185 133.522 84.2504 133.004C84.4328 132.795 84.4328 132.795 84.6189 132.581C87.8108 128.911 90.0168 124.559 90.7423 119.732C90.7687 119.559 90.7951 119.387 90.8223 119.21C91.6901 111.954 88.9784 104.361 84.5389 98.669C84.5865 98.5738 84.6341 98.4786 84.6832 98.3805C86.6948 100.293 88.3542 102.31 89.7324 104.728C89.7839 104.817 89.8353 104.907 89.8883 104.999C91.9087 108.536 93.3459 112.73 93.1948 116.846C93.2929 116.882 93.3911 116.918 93.4923 116.954C95.1263 117.65 96.5927 118.754 97.9555 119.876C98.0394 119.945 98.1233 120.014 98.2098 120.085C104.614 125.394 108.09 132.708 108.92 140.938C108.936 141.089 108.952 141.239 108.969 141.393C109.37 145.847 108.889 150.27 108.054 154.644C108.013 154.859 108.013 154.859 107.971 155.079C107.661 156.651 107.185 157.929 106.354 159.297C104.379 162.557 104.145 166.612 104.894 170.283C105.011 170.793 105.011 170.793 105.195 171.233C105.536 172.133 105.457 172.664 105.073 173.519C104.894 173.893 104.711 174.265 104.528 174.637C101.877 180.071 102.06 186.251 103.293 192.008C69.2065 192.008 35.1197 192.008 0 192.008C0 128.643 0 65.2776 0 -0.0078125Z" fill="#110375"/>
</g>
<defs>
<clipPath id="clip0_7_189">
<rect width="192" height="192" fill="white"/>
</clipPath>
</defs>
</svg>
