<svg width="1024" height="1024" viewBox="0 0 1024 1024" fill="none" xmlns="http://www.w3.org/2000/svg">
<g clip-path="url(#clip0_7_187)">
<path d="M1024 0H0V1024H1024V0Z" fill="white"/>
<path d="M0 -0.0419922C337.694 -0.0419922 675.388 -0.0419922 1023.31 -0.0419922C1023.31 155.602 1023.31 311.246 1023.31 471.606C1019.98 469.105 1016.8 466.721 1013.65 464.056C999.443 452.726 981.983 445.603 964.84 440.06C963.539 439.629 962.239 439.196 960.939 438.762C960.359 438.569 959.78 438.375 959.183 438.176C958.765 438.036 958.346 437.896 957.915 437.752C957.915 437.244 957.915 436.737 957.915 436.213C974.918 430.52 991.054 432.926 1007.28 439.928C1009.31 440.927 1009.31 440.927 1011 440.83C999.286 418.997 981.891 402.777 957.915 395.435C926.09 386.094 890.054 391.428 859.548 403.055C858.957 403.276 858.366 403.498 857.757 403.727C857.242 403.927 856.726 404.127 856.196 404.334C854.814 404.668 854.814 404.668 852.506 403.898C892.407 378.913 935.337 364.607 982.536 371.583C960.262 343.596 931.712 318.338 894.626 314.055C874.15 312.328 857.112 315.636 837.953 322.288C812.28 331.181 784.737 338.846 757.34 338.546C756.717 338.543 756.095 338.539 755.454 338.536C753.95 338.527 752.447 338.513 750.944 338.498C753.113 336.329 755.724 335.865 758.59 334.988C784.768 326.566 807.462 309.78 820.421 285.22C832.349 261.388 828.945 233.358 820.855 208.847C816.163 195.309 809.85 182.981 800.186 172.306C799.85 171.932 799.514 171.558 799.168 171.173C786.888 157.685 768.938 147.176 750.46 145.963C738.855 145.744 729.432 148.487 720.546 156.307C717.162 159.586 714.296 162.99 711.704 166.92C712.355 166.605 713.005 166.289 713.676 165.964C714.548 165.55 715.421 165.135 716.32 164.708C717.177 164.297 718.034 163.887 718.917 163.464C729.119 159.22 742.343 158.991 752.717 162.878C760.792 166.634 764.947 171.442 768.111 179.759C772.385 191.931 771.167 206.313 765.755 217.845C758.915 230.722 747.87 241.266 733.879 245.729C707.868 253.377 678.244 245.934 652.205 241.508C621.666 235.705 621.666 235.705 590.762 233.57C590.239 233.574 589.716 233.578 589.177 233.582C541.198 233.99 498.414 262.078 463.185 292.334C462.677 292.08 462.169 291.826 461.646 291.564C467.212 279.75 473.702 269.819 482.811 260.433C483.9 259.31 484.976 258.174 486.051 257.037C494.754 248.026 505.776 238.723 517.043 233.089C459.075 232.076 407.216 250.002 363.931 289.256C363.212 289.904 363.212 289.904 362.478 290.565C355.432 296.927 355.432 296.927 349.026 303.92C347.542 305.69 345.975 307.372 344.407 309.068C341.11 312.705 338.216 316.542 335.345 320.516C333.924 322.341 333.924 322.341 332.385 323.11C333.802 317.888 335.575 313.081 338.011 308.251C338.339 307.599 338.667 306.947 339.004 306.275C344.547 295.561 351.465 285.336 359.314 276.176C359.932 275.427 360.55 274.678 361.187 273.907C367.86 265.849 374.957 258.142 382.397 250.786C365.465 258.817 349.072 268.194 333.924 279.254C333.508 279.556 333.091 279.858 332.662 280.169C324.907 285.813 317.498 291.845 310.418 298.315C309.198 299.423 307.967 300.518 306.721 301.597C297.273 309.827 289.087 319.243 281.604 329.265C281.287 329.684 280.97 330.103 280.644 330.534C271.94 342.086 264.636 354.639 258.522 367.736C258.272 368.264 258.023 368.793 257.766 369.338C249.978 385.945 244.682 403.119 240.056 420.825C239.886 421.456 239.716 422.087 239.541 422.737C238.865 425.303 238.517 427.378 238.517 430.058C239.041 429.423 239.564 428.789 240.104 428.135C244.558 422.802 249.181 417.706 254.098 412.794C254.596 412.295 255.095 411.796 255.609 411.281C266.578 400.435 278.848 390.986 291.606 382.355C292.131 382 292.655 381.645 293.195 381.279C302.141 375.27 311.407 369.857 320.844 364.658C321.52 364.284 322.195 363.911 322.892 363.526C343.63 352.143 365.353 343.449 387.746 335.95C389.282 335.434 390.814 334.912 392.347 334.387C415.443 326.493 439.002 320.401 463.185 316.955C463.995 316.83 464.806 316.705 465.641 316.576C495.483 312.112 527.965 312.993 557.822 316.955C558.887 317.089 559.953 317.222 561.018 317.355C633.472 326.442 705.775 347.31 852.804 446.695C854.114 447.887 855.428 449.074 856.745 450.257C863.123 456.025 869.225 462.048 875.296 468.136C876.991 469.835 878.69 471.53 880.39 473.225C881.487 474.323 882.585 475.421 883.682 476.52C884.43 477.266 884.43 477.266 885.193 478.026C888.139 480.988 890.945 484.035 893.672 487.199C895.146 488.907 896.667 490.571 898.19 492.236C901.188 495.559 904.036 498.98 906.849 502.461C908.439 504.405 910.062 506.317 911.702 508.22C916.454 513.75 920.843 519.505 925.164 525.376C926.348 526.975 927.548 528.561 928.753 530.144C942.241 547.992 954.407 566.896 965.609 586.248C966.106 587.103 966.604 587.959 967.116 588.84C982.856 615.933 997.652 643.656 1010.33 672.326C1010.66 673.057 1010.66 673.057 1010.99 673.803C1012.08 676.268 1013.14 678.743 1014.15 681.24C1015.22 683.853 1016.41 686.384 1017.64 688.926C1024.29 703.356 1024.27 716.575 1023.84 732.148C1023.76 735.403 1023.73 738.659 1023.69 741.915C1023.61 748.246 1023.48 754.575 1023.31 760.904C1021.55 758.261 1020.65 755.569 1019.65 752.585C1019.22 751.329 1018.79 750.074 1018.36 748.819C1018.02 747.824 1018.02 747.824 1017.67 746.809C1002.5 702.472 983.301 659.111 960.51 618.158C959.497 616.333 958.494 614.504 957.494 612.673C941.413 583.308 922.721 555.407 901.748 529.312C900.888 528.241 900.888 528.241 900.011 527.148C893.661 519.319 887.094 511.663 880.316 504.201C879.185 502.955 878.061 501.702 876.944 500.444C873.554 496.632 870.062 492.98 866.427 489.402C865.007 487.958 863.706 486.482 862.412 484.927C858.479 480.352 853.914 476.389 849.481 472.311C847.877 470.825 846.287 469.325 844.701 467.819C839.665 463.042 834.625 458.367 829.192 454.039C827.256 452.484 825.364 450.889 823.479 449.274C818.168 444.725 812.702 440.411 807.111 436.213C806.594 435.822 806.077 435.431 805.544 435.027C750.636 393.533 689.067 366.364 512.812 336.767C511.982 336.767 511.152 336.766 510.297 336.766C455.907 336.819 398.894 350.408 349.652 373.771C347.695 374.697 345.727 375.594 343.755 376.488C321.311 386.775 300.198 400.134 280.835 415.439C280.059 416.052 279.283 416.665 278.484 417.297C274.353 420.627 270.375 424.102 266.456 427.678C264.941 429.049 263.401 430.374 261.84 431.693C253.855 438.672 246.587 446.336 240.056 454.679C238.84 456.156 237.622 457.631 236.401 459.103C233.893 462.165 231.529 465.27 229.284 468.529C226.631 466.124 224.61 463.577 222.552 460.642C212.496 446.699 198.196 439.046 181.581 435.444C158.31 431.91 133.841 437.92 113.103 448.524C115.187 450.972 117.867 452.271 120.653 453.765C140.326 464.602 158.471 477.881 176.195 491.611C176.717 492.013 177.238 492.414 177.776 492.828C184.187 497.766 190.404 502.897 196.497 508.223C197.307 508.93 198.118 509.635 198.931 510.337C200.013 511.271 201.088 512.213 202.162 513.154C202.761 513.678 203.361 514.202 203.978 514.741C205.477 516.278 206.21 517.314 206.971 519.31C206.876 521.208 206.876 521.208 206.475 523.325C206.335 524.106 206.195 524.888 206.05 525.693C205.894 526.507 205.738 527.32 205.577 528.158C203.656 538.455 202.945 548.459 202.932 558.934C202.931 559.481 202.929 560.028 202.928 560.592C202.926 572.693 203.287 585.306 206.145 597.104C207.861 604.603 205.348 609.776 202.493 616.631C196.729 630.692 193.577 646.779 199.566 661.103C204.663 672.155 212.448 680.508 221.148 688.89C221.692 689.418 222.237 689.945 222.798 690.488C223.533 691.189 223.533 691.189 224.283 691.904C226.661 694.566 226.399 697.807 226.533 701.185C226.558 701.769 226.584 702.352 226.611 702.953C226.697 704.915 226.778 706.876 226.859 708.837C226.919 710.241 226.98 711.646 227.041 713.05C227.206 716.872 227.367 720.694 227.527 724.517C227.696 728.524 227.868 732.53 228.039 736.537C228.326 743.278 228.611 750.019 228.894 756.761C229.221 764.528 229.551 772.294 229.884 780.061C230.205 787.549 230.523 795.036 230.839 802.524C230.974 805.7 231.109 808.877 231.245 812.053C231.406 815.81 231.565 819.568 231.721 823.325C231.778 824.695 231.837 826.064 231.896 827.433C232.054 831.087 232.196 834.742 232.307 838.398C232.344 839.596 232.387 840.794 232.433 841.991C232.5 843.783 232.546 845.575 232.586 847.367C232.609 847.902 232.632 848.436 232.656 848.986C232.707 852.694 231.856 854.501 229.332 857.177C228.489 857.958 228.489 857.958 227.628 858.754C225.987 860.151 225.987 860.151 225.437 862.707C225.437 863.643 225.437 864.579 225.437 865.544C225.397 866.484 225.397 866.484 225.356 867.443C224.902 883.183 227.41 900.555 237.877 912.908C246.25 921.684 255.664 924.991 267.758 925.348C272.021 925.737 274.128 927.869 277.276 930.655C288.034 939.863 301.792 946.479 316.227 945.563C316.836 945.564 317.445 945.565 318.073 945.566C321.478 945.309 323.316 944.658 325.707 942.154C327.593 939.519 329.247 936.836 330.846 934.021C331.147 933.505 331.448 932.989 331.758 932.457C336.937 923.493 340.446 914.605 342.772 904.495C344.744 896.254 349.379 889.628 356.525 885.029C360.085 883.233 363.883 882.453 367.778 881.702C365.872 888.241 363.718 894.685 361.525 901.132C359.406 907.421 357.55 913.067 357.679 919.787C357.693 920.732 357.707 921.676 357.721 922.649C357.748 923.708 357.748 923.708 357.776 924.788C359.187 925.657 359.187 925.657 360.853 926.327C370.197 922.947 375.061 912.274 379.731 904.183C380.362 903.1 380.995 902.018 381.627 900.937C381.936 900.397 382.245 899.857 382.564 899.301C384.628 895.817 386.818 893.331 389.946 890.694C400.275 881.623 406.74 869.774 408.031 856.025C408.295 848.516 407.194 839.878 403.402 833.253C401.188 828.094 403.898 821.044 405.065 815.737C405.258 814.851 405.451 813.964 405.649 813.051C407.43 804.9 409.258 796.76 411.103 788.623C412.339 783.168 413.559 777.71 414.739 772.242C415.774 767.452 416.837 762.67 417.936 757.894C418.515 755.374 419.075 752.853 419.609 750.323C423.709 730.997 423.709 730.997 432.885 724.883C433.319 724.611 433.753 724.339 434.2 724.058C436.344 722.633 438.161 720.906 440.054 719.164C440.736 718.538 441.417 717.912 442.119 717.267C444.717 714.772 447.032 712.12 449.335 709.354C450.308 708.238 450.308 708.238 451.301 707.1C468.324 687.525 480.09 664.315 483.959 638.568C484.1 637.65 484.24 636.731 484.385 635.785C489.014 597.087 474.551 556.59 450.874 526.234C451.128 525.726 451.382 525.219 451.644 524.695C462.373 534.897 471.222 545.653 478.573 558.549C478.847 559.026 479.122 559.502 479.404 559.992C490.18 578.858 497.845 601.229 497.039 623.18C497.562 623.37 498.086 623.561 498.626 623.757C507.34 627.465 515.161 633.355 522.429 639.337C522.877 639.706 523.324 640.074 523.785 640.454C557.941 668.769 576.482 707.777 580.904 751.671C580.991 752.472 581.077 753.272 581.166 754.097C583.309 777.849 580.741 801.442 576.288 824.765C576.069 825.916 576.069 825.916 575.846 827.089C574.19 835.47 571.654 842.289 567.22 849.585C556.69 866.969 555.442 888.597 559.436 908.177C560.057 910.898 560.057 910.898 561.041 913.244C562.858 918.044 562.438 920.872 560.392 925.437C559.435 927.43 558.46 929.414 557.482 931.398C543.342 960.377 544.318 993.338 550.897 1024.04C369.101 1024.04 187.305 1024.04 0 1024.04C0 686.095 0 348.147 0 -0.0419922Z" fill="#110375"/>
</g>
<defs>
<clipPath id="clip0_7_187">
<rect width="1024" height="1024" fill="white"/>
</clipPath>
</defs>
</svg>
